<mxfile host="app.diagrams.net" modified="2023-09-28T19:38:26.653Z" agent="Mozilla/5.0 (Windows NT 10.0; Win64; x64) AppleWebKit/537.36 (KHTML, like Gecko) Chrome/116.0.0.0 Safari/537.36 OPR/102.0.0.0" etag="sNOF4rfz93KuvDWVqkVT" version="21.3.2" type="device">
  <diagram name="Страница 1" id="9I6kRG4TjakVYFT1bQP0">
    <mxGraphModel dx="1096" dy="677" grid="1" gridSize="10" guides="1" tooltips="1" connect="1" arrows="1" fold="1" page="1" pageScale="1" pageWidth="827" pageHeight="1169" math="0" shadow="0">
      <root>
        <mxCell id="0" />
        <mxCell id="1" parent="0" />
        <mxCell id="72D0a2mJFSV67DrGo5TP-1" value="" style="ellipse;whiteSpace=wrap;html=1;aspect=fixed;" vertex="1" parent="1">
          <mxGeometry x="380" y="215" width="80" height="80" as="geometry" />
        </mxCell>
        <mxCell id="72D0a2mJFSV67DrGo5TP-3" value="&lt;font style=&quot;font-size: 40px;&quot;&gt;X&lt;/font&gt;" style="text;html=1;strokeColor=none;fillColor=none;align=center;verticalAlign=middle;whiteSpace=wrap;rounded=0;" vertex="1" parent="1">
          <mxGeometry x="40" y="125" width="120" height="90" as="geometry" />
        </mxCell>
        <mxCell id="72D0a2mJFSV67DrGo5TP-4" value="&lt;font style=&quot;font-size: 40px;&quot;&gt;y&lt;/font&gt;" style="text;html=1;strokeColor=none;fillColor=none;align=center;verticalAlign=middle;whiteSpace=wrap;rounded=0;" vertex="1" parent="1">
          <mxGeometry x="40" y="295" width="120" height="90" as="geometry" />
        </mxCell>
        <mxCell id="72D0a2mJFSV67DrGo5TP-5" value="" style="endArrow=classic;html=1;rounded=0;exitX=1;exitY=0.25;exitDx=0;exitDy=0;entryX=0;entryY=1;entryDx=0;entryDy=0;" edge="1" parent="1" source="72D0a2mJFSV67DrGo5TP-4" target="72D0a2mJFSV67DrGo5TP-1">
          <mxGeometry width="50" height="50" relative="1" as="geometry">
            <mxPoint x="360" y="280" as="sourcePoint" />
            <mxPoint x="410" y="230" as="targetPoint" />
          </mxGeometry>
        </mxCell>
        <mxCell id="72D0a2mJFSV67DrGo5TP-6" value="" style="endArrow=classic;html=1;rounded=0;exitX=1;exitY=0.75;exitDx=0;exitDy=0;entryX=0;entryY=0;entryDx=0;entryDy=0;" edge="1" parent="1" source="72D0a2mJFSV67DrGo5TP-3" target="72D0a2mJFSV67DrGo5TP-1">
          <mxGeometry width="50" height="50" relative="1" as="geometry">
            <mxPoint x="360" y="280" as="sourcePoint" />
            <mxPoint x="410" y="230" as="targetPoint" />
          </mxGeometry>
        </mxCell>
        <mxCell id="72D0a2mJFSV67DrGo5TP-7" value="" style="endArrow=classic;html=1;rounded=0;exitX=1;exitY=0.5;exitDx=0;exitDy=0;" edge="1" parent="1" source="72D0a2mJFSV67DrGo5TP-1">
          <mxGeometry width="50" height="50" relative="1" as="geometry">
            <mxPoint x="360" y="280" as="sourcePoint" />
            <mxPoint x="620" y="255" as="targetPoint" />
          </mxGeometry>
        </mxCell>
        <mxCell id="72D0a2mJFSV67DrGo5TP-8" value="&lt;span style=&quot;font-size: 30px;&quot;&gt;W&lt;sub&gt;x&lt;/sub&gt;&lt;/span&gt;" style="text;html=1;strokeColor=none;fillColor=none;align=center;verticalAlign=middle;whiteSpace=wrap;rounded=0;strokeWidth=1;" vertex="1" parent="1">
          <mxGeometry x="250" y="170" width="60" height="30" as="geometry" />
        </mxCell>
        <mxCell id="72D0a2mJFSV67DrGo5TP-9" value="&lt;span style=&quot;font-size: 30px;&quot;&gt;W&lt;/span&gt;&lt;span style=&quot;font-size: 25px;&quot;&gt;y&lt;br&gt;&lt;/span&gt;" style="text;html=1;strokeColor=none;fillColor=none;align=center;verticalAlign=middle;whiteSpace=wrap;rounded=0;strokeWidth=1;" vertex="1" parent="1">
          <mxGeometry x="250" y="310" width="60" height="30" as="geometry" />
        </mxCell>
        <mxCell id="72D0a2mJFSV67DrGo5TP-10" value="&lt;span style=&quot;font-size: 30px;&quot;&gt;answer&lt;/span&gt;" style="text;html=1;strokeColor=none;fillColor=none;align=center;verticalAlign=middle;whiteSpace=wrap;rounded=0;strokeWidth=1;" vertex="1" parent="1">
          <mxGeometry x="530" y="220" width="60" height="30" as="geometry" />
        </mxCell>
      </root>
    </mxGraphModel>
  </diagram>
</mxfile>
